<?xml version="1.0" standalone="no"?>
<!DOCTYPE svg PUBLIC "-//W3C//DTD SVG 20010904//EN"
 "http://www.w3.org/TR/2001/REC-SVG-20010904/DTD/svg10.dtd">
<svg version="1.0" xmlns="http://www.w3.org/2000/svg"
 width="512.000000pt" height="512.000000pt" viewBox="0 0 512.000000 512.000000"
 preserveAspectRatio="xMidYMid meet">
<metadata>
Created by potrace 1.16, written by Peter Selinger 2001-2019
</metadata>
<g transform="translate(0.000000,512.000000) scale(0.100000,-0.100000)"
fill="#000000" stroke="none">
<path d="M1750 4241 c34 -50 67 -94 73 -98 6 -3 -18 35 -53 86 -34 50 -67 94
-73 98 -6 3 18 -35 53 -86z"/>
<path d="M2446 4108 c3 -85 1 -128 -6 -133 -7 -4 -9 -23 -4 -51 8 -54 -12 -62
-22 -9 -7 42 -45 75 -84 75 -31 0 -80 -34 -80 -56 0 -12 -13 -14 -77 -8 -43 4
-81 11 -84 16 -4 7 -13 7 -25 0 -11 -5 -38 -12 -62 -16 -67 -10 -117 25 -161
112 -41 80 -74 99 -112 61 -28 -28 -18 -51 46 -114 35 -34 57 -66 66 -94 12
-41 12 -43 -17 -71 -42 -42 -62 -32 -128 65 -130 191 -269 261 -349 177 -56
-59 -62 -137 -17 -249 17 -41 30 -77 30 -79 0 -3 -12 4 -26 15 -31 25 -96 28
-114 7 -9 -12 -4 -23 30 -60 34 -37 39 -47 26 -51 -9 -3 -22 -7 -30 -9 -8 -3
-88 54 -177 126 -90 71 -193 153 -229 181 -36 29 -103 85 -150 125 -85 73 -85
73 20 -28 58 -56 176 -165 263 -242 86 -77 157 -141 157 -143 0 -2 -15 1 -32
6 -56 16 -160 11 -198 -10 -50 -26 -80 -74 -80 -128 0 -60 27 -107 99 -176 75
-72 79 -89 16 -80 -28 3 -45 2 -45 -5 0 -12 24 -22 55 -22 18 0 24 -7 29 -37
5 -35 18 -59 60 -118 20 -28 4 -65 -27 -65 -30 0 -52 -24 -43 -46 5 -13 2 -15
-16 -10 -120 31 -162 39 -177 29 -26 -16 -25 -52 3 -92 33 -47 33 -52 -3 -38
-35 13 -61 4 -61 -23 0 -29 38 -42 68 -24 19 12 27 13 49 2 35 -17 37 -45 6
-74 -27 -25 -24 -44 8 -44 13 0 19 7 20 23 1 19 2 18 9 -6 8 -25 4 -32 -23
-56 l-31 -28 -30 18 c-17 11 -41 19 -54 19 -21 0 -22 -3 -16 -42 4 -24 13 -50
21 -59 12 -14 10 -18 -18 -29 -41 -17 -99 -75 -99 -99 0 -13 -7 -17 -28 -16
-16 2 -18 1 -5 -2 31 -6 36 -30 7 -37 -13 -4 -24 -11 -24 -17 0 -6 6 -6 19 1
27 14 31 13 31 -6 0 -9 -8 -23 -18 -31 -15 -13 -15 -13 5 -3 18 8 24 7 33 -9
5 -11 24 -28 40 -38 21 -12 26 -20 17 -26 -8 -6 -6 -7 7 -3 10 4 34 4 52 0
l33 -6 -15 -30 c-12 -23 -13 -29 -2 -25 7 2 12 9 11 15 -2 10 56 26 64 18 3
-2 -1 -14 -7 -26 -7 -13 -7 -20 -2 -16 6 3 12 0 15 -6 3 -10 8 -9 18 3 8 10
24 20 35 23 17 5 24 0 34 -23 15 -37 5 -54 -26 -48 -13 2 -21 1 -19 -4 4 -6
-20 -15 -65 -24 -27 -5 -331 -107 -328 -110 7 -7 396 74 434 90 44 18 53 19
31 3 -49 -38 -16 -115 45 -106 44 7 46 -16 4 -62 -38 -42 -44 -67 -24 -89 10
-10 10 -15 1 -18 -21 -8 -302 -177 -299 -180 5 -6 270 117 326 151 92 56 138
77 145 65 12 -18 -4 -73 -35 -118 -37 -55 -39 -98 -5 -135 31 -33 71 -34 104
-2 15 14 46 36 71 49 l46 24 68 -62 69 -62 -49 -34 c-57 -39 -324 -249 -324
-255 0 -2 44 25 97 61 266 175 306 192 367 152 27 -18 27 -18 20 -110 -7 -101
-31 -157 -69 -157 -32 0 -82 -36 -89 -63 -3 -14 -2 -36 3 -49 7 -19 1 -32 -35
-76 -64 -78 -54 -85 20 -14 35 34 73 62 83 62 32 0 65 43 61 79 -2 28 7 40
110 131 78 70 112 95 112 82 0 -10 5 -23 12 -30 9 -9 6 -12 -15 -12 -15 0 -40
-12 -59 -29 -65 -58 -29 -151 58 -151 35 0 47 5 68 31 14 17 26 34 26 37 0 4
14 7 30 8 17 1 30 -2 30 -7 0 -4 13 -10 29 -14 l30 -6 -28 -47 c-16 -26 -52
-85 -81 -132 -29 -47 -45 -78 -35 -70 24 20 165 206 165 218 0 5 20 12 45 15
25 4 59 14 75 22 17 9 30 12 30 8 0 -16 -182 -214 -210 -228 -23 -12 -30 -22
-30 -45 0 -38 28 -55 58 -34 12 8 22 23 22 32 0 9 56 85 125 167 94 113 132
151 153 156 16 3 34 9 40 13 19 11 15 2 -23 -55 -19 -30 -35 -58 -35 -62 0 -5
18 18 41 52 22 33 44 61 49 61 12 0 27 -79 54 -300 l25 -195 -2 240 c-2 206 0
240 13 242 23 5 77 -84 95 -157 29 -116 82 -131 186 -51 124 96 164 206 109
305 -19 36 -22 48 -12 58 10 10 15 8 28 -10 24 -35 85 -31 118 9 14 17 26 41
26 53 0 21 5 23 58 25 66 2 215 19 235 27 7 2 19 -6 27 -20 7 -14 19 -27 27
-30 10 -4 9 4 -6 28 l-21 33 65 5 c36 3 71 11 79 17 7 6 16 8 19 4 4 -3 17 -1
30 4 12 6 32 14 44 16 33 7 16 -19 -57 -86 -79 -74 -180 -122 -304 -148 -120
-24 -141 -35 -222 -110 -54 -50 -68 -58 -90 -53 -17 4 -29 2 -35 -7 -24 -39 4
-79 55 -79 38 0 59 20 75 72 15 44 67 93 111 103 17 4 53 1 80 -5 47 -11 54
-18 172 -163 68 -84 150 -186 182 -227 33 -41 64 -79 69 -85 22 -22 -53 99
-176 285 l-130 195 32 9 c26 8 35 5 56 -14 20 -19 27 -21 40 -10 13 11 13 15
0 33 -8 12 -15 25 -15 29 0 22 25 -1 100 -94 46 -56 85 -97 87 -91 2 6 -23 55
-56 110 -34 54 -61 103 -61 108 1 20 81 77 101 72 21 -6 28 18 7 25 -8 3 -2
12 14 22 25 17 28 16 63 -6 32 -21 35 -26 30 -55 -4 -20 0 -44 10 -62 34 -67
103 -81 157 -32 l32 29 85 -79 c46 -44 88 -79 93 -79 12 0 -129 156 -159 175
-13 9 -23 23 -23 33 -1 36 -56 82 -99 82 -16 0 -20 6 -19 25 2 19 7 24 18 19
8 -4 38 -9 67 -12 41 -3 61 0 94 17 l41 22 56 -48 c31 -26 138 -128 236 -227
99 -98 174 -170 166 -160 -25 32 -172 203 -297 344 l-120 136 5 60 c4 57 6 62
38 79 l34 18 60 -47 c33 -26 60 -44 60 -39 0 4 -23 31 -51 59 -51 52 -51 52
-33 76 l18 24 35 -19 c45 -23 121 -18 159 10 15 10 37 39 50 64 28 53 24 105
-13 161 -23 34 -24 41 -13 81 10 40 13 43 46 43 57 0 82 54 42 94 -14 14 -33
20 -65 20 -41 0 -45 2 -50 28 -16 79 -38 149 -61 194 -14 27 -24 51 -22 53 7
7 113 -18 132 -31 41 -29 106 -6 106 37 0 39 -25 53 -101 54 -100 2 -140 17
-181 68 -52 63 -52 68 1 120 46 45 47 46 249 98 111 29 200 54 198 56 -1 2
-81 -12 -177 -32 -96 -19 -179 -35 -186 -35 -19 0 21 89 53 116 l29 25 -32
-16 c-31 -15 -33 -15 -33 4 0 31 80 91 256 191 90 52 162 95 160 97 -2 2 -66
-26 -142 -63 -164 -78 -209 -95 -229 -88 -41 16 -4 51 240 234 83 62 155 117
160 122 6 6 -87 -55 -205 -135 -215 -145 -286 -187 -314 -187 -13 0 -12 7 4
42 18 41 40 62 40 39 0 -6 9 -11 20 -11 25 0 27 35 4 48 -13 7 -14 15 -5 48
30 109 0 224 -80 299 -63 59 -130 87 -240 99 -13 1 -34 9 -46 16 -21 13 -20
14 20 45 60 45 88 59 124 60 47 2 83 30 83 64 0 30 -27 61 -52 61 -20 0 -68
-38 -68 -54 0 -11 -35 -44 -142 -134 -15 -12 -23 -12 -63 1 -25 9 -83 21 -128
27 -157 22 -148 19 -138 38 21 41 23 100 3 144 -12 27 -17 57 -14 81 2 21 -1
44 -8 52 -21 25 -95 18 -164 -14 -82 -40 -136 -88 -185 -166 -37 -58 -45 -65
-71 -63 -17 1 -30 8 -30 15 0 23 -22 25 -46 2 -22 -21 -27 -21 -66 -10 -49 15
-98 61 -98 92 0 12 9 71 21 131 11 60 18 112 16 115 -6 6 -67 -182 -67 -206 0
-8 -14 7 -31 32 -38 57 -70 83 -119 98 -32 10 -44 9 -76 -7 -62 -30 -85 -74
-82 -156 3 -65 1 -71 -25 -94 -31 -26 -56 -31 -75 -12 -17 17 -15 26 7 33 30
9 34 36 11 67 -14 19 -20 44 -21 80 -1 29 -5 80 -9 113 -6 43 -7 24 -4 -67z
m344 -115 c17 -21 40 -64 52 -95 11 -32 25 -58 30 -58 5 0 4 9 -2 19 -16 31
-12 32 15 6 17 -17 36 -25 62 -26 44 -1 81 -13 67 -22 -6 -3 -35 -15 -66 -27
-31 -11 -74 -34 -96 -50 l-40 -29 -6 29 c-9 50 -38 56 -121 26 -84 -30 -86
-30 -109 -13 -16 12 -15 14 11 37 15 14 21 17 14 7 -12 -15 -12 -17 1 -12 9 4
16 16 16 28 0 34 52 170 75 195 30 33 61 28 97 -15z m-1231 -11 c54 -37 76
-69 77 -114 0 -28 -4 -38 -15 -38 -14 -1 -13 -3 2 -14 27 -21 20 -28 -13 -11
-61 32 -165 12 -191 -37 l-11 -21 -14 24 c-17 31 -28 119 -19 157 17 81 105
107 184 54z m1916 -17 c30 -29 32 -68 6 -111 -18 -30 -22 -31 -111 -38 -50 -4
-94 -5 -97 -2 -12 12 19 87 49 122 53 60 112 71 153 29z m-1150 -98 c51 -20
45 -20 -40 -2 -188 40 -344 0 -466 -119 -39 -37 -47 -43 -30 -19 41 60 128
120 216 150 54 17 265 11 320 -10z m63 -63 c79 -26 187 -82 178 -91 -3 -3 -19
-15 -37 -27 l-32 -22 -96 19 c-72 14 -126 18 -216 14 -108 -3 -127 -7 -185
-34 -71 -32 -114 -69 -69 -59 69 16 164 26 252 26 98 0 237 -17 237 -29 0 -4
-18 -25 -40 -46 -22 -22 -52 -56 -65 -76 l-26 -36 -112 -6 c-126 -7 -222 -30
-335 -82 -75 -35 -182 -106 -215 -143 -18 -20 -16 -20 54 4 190 64 425 71 574
17 92 -33 173 -84 257 -161 l58 -54 -78 -47 c-42 -26 -87 -53 -99 -61 -20 -13
-26 -10 -82 42 -33 31 -91 71 -128 90 -64 31 -73 33 -178 33 -100 0 -115 -2
-161 -27 -157 -83 -237 -299 -200 -545 28 -186 97 -307 206 -361 209 -105 403
9 436 257 l7 51 -72 0 -71 0 0 58 c0 31 5 64 10 72 8 12 47 16 235 18 l225 3
0 -58 c0 -86 -25 -189 -65 -270 -48 -97 -156 -199 -269 -252 -89 -43 -149 -59
-259 -71 l-72 -7 71 -2 c86 -1 223 21 298 49 29 11 81 38 115 60 34 22 61 38
61 35 0 -2 -32 -27 -72 -55 -44 -31 -103 -61 -152 -77 -75 -25 -93 -27 -236
-27 -140 0 -164 3 -245 28 -188 57 -344 170 -423 306 -17 30 -32 51 -32 45 0
-19 58 -110 101 -160 41 -47 42 -48 11 -26 -57 40 -47 15 21 -52 105 -103 271
-179 467 -213 60 -10 164 -16 289 -18 138 -1 203 -6 219 -15 13 -7 26 -11 28
-8 3 2 -5 25 -16 51 -28 65 -26 83 12 106 37 22 42 19 61 -35 8 -22 17 -40 21
-40 13 0 137 182 180 265 54 105 84 191 99 288 l12 75 77 -6 77 -6 -45 41
c-54 50 -99 139 -120 238 -19 89 -14 261 11 355 21 79 119 275 154 309 43 41
264 97 456 117 63 6 47 7 -70 4 -110 -3 -183 -11 -275 -30 -137 -28 -139 -29
-204 -129 -28 -44 -38 -51 -116 -80 -102 -38 -209 -96 -259 -141 l-36 -33
-100 59 c-55 32 -104 60 -109 62 -5 2 6 34 25 73 45 93 191 240 304 305 44 26
90 50 103 54 23 7 23 6 21 -59 -1 -36 0 -69 3 -72 4 -3 17 1 30 10 76 49 386
137 560 157 128 15 361 7 443 -15 102 -28 201 -81 265 -142 80 -76 112 -143
118 -244 6 -98 -12 -155 -79 -255 -78 -117 -190 -198 -462 -336 -64 -32 -83
-46 -70 -50 10 -4 63 -21 118 -38 191 -61 336 -147 418 -249 52 -65 82 -164
72 -240 -33 -262 -265 -417 -773 -516 -132 -26 -313 -45 -301 -32 4 4 47 16
95 26 80 18 83 19 29 14 -119 -12 -389 -111 -558 -206 -137 -77 -181 -83 -227
-31 -50 56 -50 79 7 303 2 8 -14 -22 -36 -67 -29 -61 -46 -84 -63 -88 -13 -3
-80 -9 -150 -13 -106 -7 -134 -13 -175 -34 -59 -30 -81 -26 -218 45 -263 136
-475 396 -579 711 -14 43 -26 86 -26 95 0 36 -14 42 -59 26 -96 -34 -177 -8
-214 68 -36 73 6 163 86 185 41 12 89 2 117 -23 15 -14 16 -11 19 31 6 130 89
344 193 504 59 89 177 206 273 268 100 66 85 68 -23 3 -112 -67 -192 -133
-305 -251 -53 -55 -97 -97 -97 -93 0 26 73 127 138 193 87 87 208 170 342 234
81 39 95 49 126 97 87 132 181 192 324 207 89 10 197 -3 288 -34z m-658 5 c0
-6 -4 -7 -10 -4 -5 3 -10 11 -10 16 0 6 5 7 10 4 6 -3 10 -11 10 -16z m1260
-73 c-52 -19 -104 -37 -115 -41 -20 -7 -20 -7 0 10 22 18 159 64 190 64 11 0
-23 -15 -75 -33z m-1378 -13 c24 -15 68 -77 68 -97 0 -3 -38 -25 -85 -49 l-86
-44 -19 24 c-43 55 -37 133 13 164 40 24 70 24 109 2z m2485 -58 c102 -30 173
-124 173 -230 0 -47 -23 -131 -43 -159 -13 -18 -14 -17 -10 11 14 91 -47 243
-133 333 -31 33 -53 60 -47 60 5 0 32 -7 60 -15z m-2952 -63 l50 -17 -3 -52
c-2 -28 2 -61 8 -73 17 -32 8 -33 -43 -4 -75 41 -54 21 31 -32 42 -26 79 -49
81 -51 3 -2 -7 -16 -23 -31 -41 -40 -145 -175 -141 -182 2 -3 -5 -16 -15 -30
l-18 -23 -16 31 c-35 68 -2 145 62 145 18 0 32 1 32 2 0 0 -11 16 -24 34 -21
28 -31 33 -75 36 -28 2 -64 11 -79 20 -38 23 -73 76 -79 122 -13 98 116 152
252 105z m1535 -473 c13 -24 13 -84 -1 -133 l-11 -39 -33 62 c-18 34 -39 70
-47 79 -12 16 -11 16 5 2 17 -13 19 -12 15 7 -3 25 28 54 49 46 8 -3 18 -14
23 -24z m-1505 -108 c-8 -17 -28 -70 -45 -118 -31 -93 -41 -95 -14 -2 17 55
60 149 69 149 3 0 -1 -13 -10 -29z m2947 -8 c-17 -21 -49 -56 -73 -78 -23 -22
-11 -5 27 37 74 84 94 101 46 41z m-2317 -105 c-33 -35 -61 -65 -63 -68 -3 -3
1 6 8 19 12 24 97 111 107 111 4 0 -20 -28 -52 -62z m2347 26 c-76 -50 -56
-55 22 -5 98 61 122 52 68 -27 -15 -22 -52 -58 -82 -79 -75 -53 -78 -84 -17
-174 43 -63 61 -99 51 -99 -3 0 -17 6 -32 14 -71 36 -72 26 -4 -41 93 -92 116
-149 116 -288 0 -126 -26 -202 -77 -228 -20 -10 -26 -16 -14 -16 31 -1 18 -21
-65 -104 -64 -63 -105 -93 -175 -130 -154 -80 -414 -156 -658 -191 -111 -16
-313 -31 -305 -23 3 3 55 11 115 17 159 17 362 56 467 90 50 16 95 27 100 24
9 -6 112 26 105 32 -2 2 -23 -3 -47 -11 -24 -8 -45 -14 -47 -11 -2 2 40 20 94
40 148 55 238 109 316 188 163 165 181 352 55 561 -60 99 -112 155 -196 209
-34 23 -61 44 -60 48 2 4 51 40 110 80 60 40 106 76 103 80 -7 11 72 80 92 80
10 0 -5 -16 -35 -36z m-1512 -18 c0 -12 -5 -7 -19 24 -11 24 -11 24 3 6 9 -11
16 -24 16 -30z m-30 -6 c23 -46 50 -142 50 -181 0 -23 -5 -28 -35 -33 -66 -13
-47 -25 35 -23 78 2 83 1 106 -26 13 -15 24 -37 24 -48 0 -27 -53 -79 -79 -79
-18 0 -21 6 -21 49 0 75 -13 81 -187 81 -164 0 -163 -1 -163 93 0 39 5 58 18
70 20 18 214 136 224 137 4 0 17 -18 28 -40z m-1657 9 c26 -6 47 -17 47 -24 0
-7 -8 -36 -17 -65 -15 -47 -18 -51 -42 -45 -39 10 -44 20 -30 59 12 34 12 37
-17 67 -24 26 -25 30 -9 26 11 -4 41 -11 68 -18z m1101 0 c31 -11 65 -32 76
-47 l21 -26 -48 -17 c-61 -22 -87 -23 -123 -4 -37 19 -40 58 -8 92 12 13 23
23 24 23 2 0 28 -9 58 -21z m-187 -30 c-42 -37 -107 -128 -107 -153 0 -5 10
-1 23 10 l22 19 -20 -25 c-11 -14 -24 -28 -30 -32 -6 -4 -10 -53 -10 -110 1
-79 5 -116 21 -158 12 -30 24 -64 28 -75 l8 -20 -17 20 c-28 33 -54 102 -65
171 -23 140 35 287 143 365 58 42 60 36 4 -12z m2133 8 c0 -2 -10 -12 -22 -23
l-23 -19 19 23 c18 21 26 27 26 19z m-50 -42 c0 -5 -106 -77 -140 -95 -39 -20
-21 -6 60 49 82 54 80 53 80 46z m-2853 -67 c-3 -8 -6 -5 -6 6 -1 11 2 17 5
13 3 -3 4 -12 1 -19z m1198 -136 c-8 -8 -25 75 -24 118 1 39 3 34 15 -35 7
-43 11 -81 9 -83z m1905 138 c-24 -19 -40 -25 -40 -15 0 5 51 34 60 34 3 0 -6
-8 -20 -19z m-2016 4 c-6 -3 -10 -15 -8 -27 2 -12 5 -43 7 -69 l4 -47 -46 -6
c-87 -12 -146 -34 -189 -71 -47 -40 -79 -94 -83 -139 -5 -69 1 -87 45 -131 44
-44 42 -59 -4 -27 -41 28 -59 55 -76 111 -47 157 71 329 270 392 53 16 111 27
80 14z m-309 -76 c-26 -29 -58 -72 -71 -97 -24 -46 -24 -46 -18 -11 3 19 11
44 16 54 18 33 90 106 105 106 9 0 -4 -21 -32 -52z m2015 -48 c22 -11 40 -23
40 -25 0 -5 -79 32 -89 41 -11 10 14 2 49 -16z m128 -84 c10 -12 0 -8 -23 9
-56 40 -66 51 -27 29 18 -10 41 -28 50 -38z m-1951 -78 c-1 -94 3 -120 26
-164 16 -32 16 -32 -13 -44 -89 -37 -176 49 -156 155 11 54 89 132 137 135 4
0 6 -37 6 -82z m-287 -216 c36 -46 111 -89 172 -101 37 -8 39 -9 12 -10 -86
-3 -181 61 -232 157 -37 70 -43 97 -8 35 13 -23 39 -60 56 -81z m906 46 c-19
-66 -77 -166 -126 -219 -35 -38 -32 -32 23 52 56 84 105 185 108 222 0 7 2 8
5 2 2 -6 -2 -32 -10 -57z m31 40 c-3 -8 -6 -5 -6 6 -1 11 2 17 5 13 3 -3 4
-12 1 -19z m-1601 -110 c35 -106 86 -218 97 -211 6 3 7 1 3 -5 -9 -15 22 -75
34 -67 6 3 7 0 4 -8 -3 -8 0 -18 7 -23 8 -5 10 -3 4 6 -5 9 -4 11 4 6 6 -4 9
-12 5 -17 -6 -11 63 -110 139 -201 98 -115 101 -123 28 -58 -67 59 -144 146
-199 226 -69 100 -172 354 -158 389 9 24 13 18 32 -37z m1034 -12 c0 -23 -59
-76 -85 -76 -12 0 -26 7 -29 16 -8 20 -12 16 49 47 59 31 65 32 65 13z m-910
-236 c6 -11 8 -20 6 -20 -3 0 -10 9 -16 20 -6 11 -8 20 -6 20 3 0 10 -9 16
-20z m3086 -51 c20 -39 18 -56 -11 -84 -27 -28 -71 -33 -101 -11 -18 14 -18
16 16 79 32 61 36 64 58 54 13 -6 30 -23 38 -38z m-393 -333 c25 13 27 13 27
-3 -1 -42 -57 -83 -112 -83 -44 0 -60 12 -56 40 4 30 87 66 103 45 9 -11 15
-10 38 1z m-183 -46 c-8 -5 -22 -10 -30 -10 -13 0 -13 1 0 10 8 5 22 10 30 10
13 0 13 -1 0 -10z m-1550 -67 c71 -64 58 -195 -26 -259 -46 -35 -134 -45 -182
-20 -33 17 -82 74 -82 96 0 7 10 -2 23 -20 34 -51 73 -75 120 -75 80 0 145 53
162 130 6 30 6 30 -32 -12 -43 -48 -84 -67 -129 -59 -71 14 -114 108 -80 174
18 35 38 48 93 61 70 17 101 13 133 -16z m1550 -51 l-1 -37 -23 29 c-14 16
-26 39 -29 52 -4 22 -3 22 24 8 24 -12 29 -21 29 -52z m-995 -5 c-66 -34 -136
-74 -155 -88 -46 -35 -95 -59 -117 -59 -11 1 -6 6 14 15 17 7 65 36 105 64 41
28 104 63 139 79 163 74 168 69 14 -11z m-1023 -82 c7 5 -7 -13 -32 -39 -24
-25 -48 -46 -52 -46 -4 0 -8 29 -8 65 l0 65 39 -26 c23 -15 45 -23 53 -19z
m175 -12 c-3 -10 -5 -4 -5 12 0 17 2 24 5 18 2 -7 2 -21 0 -30z m506 -24 c18
-10 27 -19 20 -19 -16 0 -73 49 -73 63 0 7 5 4 11 -6 6 -10 25 -27 42 -38z
m348 -28 c65 -66 12 -181 -84 -181 -47 0 -86 25 -103 67 -20 46 -17 77 8 99
12 10 18 13 13 5 -11 -19 38 -7 80 19 41 25 52 24 86 -9z"/>
<path d="M2697 3903 c-12 -11 -8 -23 8 -23 8 0 15 7 15 15 0 16 -12 20 -23 8z"/>
<path d="M2790 3850 c0 -13 7 -20 20 -20 13 0 20 7 20 20 0 13 -7 20 -20 20
-13 0 -20 -7 -20 -20z"/>
<path d="M1450 3875 c0 -9 5 -15 11 -13 6 2 11 8 11 13 0 5 -5 11 -11 13 -6 2
-11 -4 -11 -13z"/>
<path d="M3222 3410 c-28 -84 -62 -384 -62 -557 l0 -102 118 55 c64 30 135 64
157 76 46 25 107 69 102 74 -3 4 -149 -47 -245 -85 -29 -12 -58 -21 -64 -21
-13 0 -3 216 14 318 13 78 31 82 24 5 -3 -32 -8 -109 -11 -170 -5 -92 -4 -113
8 -113 7 0 54 18 104 39 209 91 353 176 398 235 75 99 13 225 -126 255 -86 19
-260 12 -376 -14 -17 -4 -22 0 -25 17 -3 20 -5 18 -16 -12z m306 -137 c-10 -2
-26 -2 -35 0 -10 3 -2 5 17 5 19 0 27 -2 18 -5z m-157 -60 c-22 -27 -52 -68
-66 -93 -19 -31 -25 -37 -22 -20 3 14 9 50 12 81 l7 57 51 9 c29 6 53 11 55
12 2 0 -15 -20 -37 -46z m99 -48 c0 -8 -141 -117 -146 -112 -15 14 50 97 86
110 19 7 60 9 60 2z m105 -15 c9 -15 -26 -43 -131 -105 -54 -32 -103 -60 -109
-63 -25 -13 48 56 120 114 76 61 107 75 120 54z"/>
<path d="M1358 3100 c-55 -60 -98 -134 -116 -202 -15 -54 -6 -47 22 17 23 51
89 157 136 218 37 47 14 29 -42 -33z"/>
<path d="M2300 3148 c3 -3 36 -21 73 -41 73 -40 85 -34 14 7 -37 21 -100 46
-87 34z"/>
<path d="M2859 3015 c-14 -224 43 -388 166 -474 l50 -36 -53 60 c-108 121
-141 206 -152 385 -5 97 -8 112 -11 65z"/>
<path d="M1703 3006 c-103 -95 -146 -205 -146 -371 0 -153 48 -301 126 -387
33 -37 65 -55 35 -20 -66 77 -119 232 -125 367 -9 175 32 304 129 410 27 30
48 55 45 55 -3 0 -32 -24 -64 -54z"/>
<path d="M3146 2458 c-3 -13 -10 -57 -17 -98 -24 -159 -80 -304 -191 -500
l-42 -75 77 82 c47 50 91 86 110 92 18 5 73 13 122 16 222 15 379 50 466 106
48 30 89 91 89 131 0 39 -41 90 -100 126 -83 50 -301 114 -462 137 -44 6 -48
4 -52 -17z m79 -125 c-9 -84 -50 -250 -67 -271 -12 -14 -3 -14 81 -8 254 19
391 78 391 170 0 17 -5 37 -12 44 -7 7 -9 12 -5 12 17 0 47 -47 47 -73 0 -61
-98 -119 -255 -152 -80 -16 -295 -31 -295 -21 0 4 15 53 34 109 18 56 42 137
52 180 10 42 22 77 27 77 5 0 6 -29 2 -67z m147 -84 c81 -18 73 -51 -24 -100
-56 -28 -102 -37 -111 -21 -3 4 2 38 10 75 l15 68 32 -6 c17 -3 52 -11 78 -16z"/>
<path d="M2471 2444 c0 -11 3 -14 6 -6 3 7 2 16 -1 19 -3 4 -6 -2 -5 -13z"/>
<path d="M2452 2368 c-6 -29 -25 -81 -42 -117 -16 -37 -23 -57 -14 -46 28 35
64 120 70 168 9 62 2 60 -14 -5z"/>
<path d="M2760 1923 c-58 -91 -119 -191 -137 -222 l-31 -56 71 0 c40 0 94 -6
121 -14 l48 -14 -38 -20 c-22 -10 -91 -48 -155 -83 -85 -46 -127 -64 -155 -65
-35 0 -37 -1 -15 -10 33 -13 77 1 174 57 45 26 131 71 191 99 l110 52 -92 23
c-71 17 -97 28 -113 48 -27 35 -21 59 63 225 39 76 68 140 66 142 -2 2 -50
-71 -108 -162z"/>
<path d="M3183 1802 c-92 -73 -108 -89 -66 -68 28 14 156 126 143 125 -3 0
-37 -26 -77 -57z"/>
<path d="M1668 1732 c84 -78 199 -125 337 -136 l60 -5 -50 10 c-145 29 -249
72 -345 141 l-55 39 53 -49z"/>
<path d="M3328 1693 c6 -2 18 -2 25 0 6 3 1 5 -13 5 -14 0 -19 -2 -12 -5z"/>
<path d="M3278 1683 c6 -2 18 -2 25 0 6 3 1 5 -13 5 -14 0 -19 -2 -12 -5z"/>
<path d="M3790 1720 c-9 -6 -10 -10 -3 -10 6 0 15 5 18 10 8 12 4 12 -15 0z"/>
<path d="M1954 4139 c-8 -14 11 -33 25 -25 11 7 4 36 -9 36 -5 0 -12 -5 -16
-11z"/>
<path d="M2279 4054 c-16 -20 0 -49 27 -49 22 0 31 30 14 50 -16 19 -24 19
-41 -1z"/>
<path d="M1170 4050 c0 -5 5 -10 10 -10 6 0 10 5 10 10 0 6 -4 10 -10 10 -5 0
-10 -4 -10 -10z"/>
<path d="M1961 4036 c-14 -17 -7 -36 14 -36 22 0 29 20 13 36 -13 13 -16 13
-27 0z"/>
<path d="M1168 3980 c29 -28 59 -50 65 -50 7 1 -12 23 -42 50 -30 28 -60 50
-65 50 -6 -1 13 -23 42 -50z"/>
<path d="M3087 4023 c-12 -11 -8 -23 8 -23 8 0 15 7 15 15 0 16 -12 20 -23 8z"/>
<path d="M3200 4009 c0 -5 5 -7 10 -4 6 3 10 8 10 11 0 2 -4 4 -10 4 -5 0 -10
-5 -10 -11z"/>
<path d="M3696 4001 c-26 -29 -17 -56 18 -56 36 0 56 27 40 53 -16 24 -37 26
-58 3z"/>
<path d="M2952 3988 c-17 -17 -15 -47 4 -55 23 -9 51 23 38 44 -14 22 -27 26
-42 11z"/>
<path d="M2132 3979 c2 -6 8 -10 13 -10 5 0 11 4 13 10 2 6 -4 11 -13 11 -9 0
-15 -5 -13 -11z"/>
<path d="M2530 3960 c0 -5 5 -10 10 -10 6 0 10 5 10 10 0 6 -4 10 -10 10 -5 0
-10 -4 -10 -10z"/>
<path d="M3045 3950 c3 -5 8 -10 11 -10 2 0 4 5 4 10 0 6 -5 10 -11 10 -5 0
-7 -4 -4 -10z"/>
<path d="M1132 3929 c2 -7 10 -15 17 -17 8 -3 12 1 9 9 -2 7 -10 15 -17 17 -8
3 -12 -1 -9 -9z"/>
<path d="M3750 3910 c0 -15 5 -20 18 -18 9 2 17 10 17 18 0 8 -8 16 -17 18
-13 2 -18 -3 -18 -18z"/>
<path d="M1739 3894 c-16 -20 0 -49 27 -49 27 0 31 41 6 54 -15 8 -23 7 -33
-5z"/>
<path d="M3649 3873 l-34 -36 31 21 c36 24 61 52 47 52 -5 0 -25 -16 -44 -37z"/>
<path d="M3739 3853 c-13 -16 -12 -17 4 -4 16 13 21 21 13 21 -2 0 -10 -8 -17
-17z"/>
<path d="M1246 3843 c-11 -11 -6 -23 9 -23 8 0 15 4 15 9 0 13 -16 22 -24 14z"/>
<path d="M663 3643 c9 -14 87 -77 87 -70 0 3 -21 22 -47 43 -26 21 -44 33 -40
27z"/>
<path d="M4402 3398 c-80 -57 -90 -79 -15 -29 61 40 97 70 91 76 -3 3 -37 -18
-76 -47z"/>
<path d="M840 3360 c0 -5 5 -10 10 -10 6 0 10 5 10 10 0 6 -4 10 -10 10 -5 0
-10 -4 -10 -10z"/>
<path d="M830 3176 c-6 -8 -10 -25 -8 -38 2 -19 9 -23 38 -23 30 0 36 4 38 24
6 40 -43 66 -68 37z"/>
<path d="M945 3120 c-3 -5 -1 -10 4 -10 6 0 11 5 11 10 0 6 -2 10 -4 10 -3 0
-8 -4 -11 -10z"/>
<path d="M595 3079 c-4 -5 -21 -8 -38 -5 l-32 6 33 -15 c17 -8 32 -22 32 -30
0 -36 81 -44 94 -9 10 27 -20 64 -54 64 -16 0 -32 -5 -35 -11z"/>
<path d="M905 3080 c4 -6 11 -8 16 -5 14 9 11 15 -7 15 -8 0 -12 -5 -9 -10z"/>
<path d="M760 3050 c0 -5 5 -10 10 -10 6 0 10 5 10 10 0 6 -4 10 -10 10 -5 0
-10 -4 -10 -10z"/>
<path d="M4447 3053 c-16 -15 -6 -34 15 -31 29 4 38 38 10 38 -10 0 -22 -3
-25 -7z"/>
<path d="M4432 2957 c-15 -17 1 -42 23 -33 18 6 17 37 -1 43 -6 2 -16 -2 -22
-10z"/>
<path d="M4430 2810 c0 -5 5 -10 10 -10 6 0 10 5 10 10 0 6 -4 10 -10 10 -5 0
-10 -4 -10 -10z"/>
<path d="M675 2760 c-4 -6 -3 -16 3 -22 6 -6 12 -6 17 2 4 6 3 16 -3 22 -6 6
-12 6 -17 -2z"/>
<path d="M4310 2745 c0 -8 7 -15 15 -15 8 0 15 7 15 15 0 8 -7 15 -15 15 -8 0
-15 -7 -15 -15z"/>
<path d="M4220 2674 c0 -17 22 -14 28 4 2 7 -3 12 -12 12 -9 0 -16 -7 -16 -16z"/>
<path d="M4275 2680 c3 -5 8 -10 11 -10 2 0 4 5 4 10 0 6 -5 10 -11 10 -5 0
-7 -4 -4 -10z"/>
<path d="M4490 2680 c0 -5 5 -10 10 -10 6 0 10 5 10 10 0 6 -4 10 -10 10 -5 0
-10 -4 -10 -10z"/>
<path d="M660 2655 c0 -9 5 -15 11 -13 6 2 11 8 11 13 0 5 -5 11 -11 13 -6 2
-11 -4 -11 -13z"/>
<path d="M550 2657 c0 -3 17 -17 38 -33 30 -23 33 -24 17 -5 -19 22 -55 46
-55 38z"/>
<path d="M530 2555 c0 -10 7 -15 18 -13 21 4 19 22 -2 26 -10 2 -16 -3 -16
-13z"/>
<path d="M616 2561 c-4 -5 -2 -12 3 -15 5 -4 12 -2 15 3 4 5 2 12 -3 15 -5 4
-12 2 -15 -3z"/>
<path d="M680 2550 c0 -5 5 -10 10 -10 6 0 10 5 10 10 0 6 -4 10 -10 10 -5 0
-10 -4 -10 -10z"/>
<path d="M4520 2510 c0 -5 5 -10 10 -10 6 0 10 5 10 10 0 6 -4 10 -10 10 -5 0
-10 -4 -10 -10z"/>
<path d="M500 2500 c8 -5 22 -9 30 -9 10 0 8 3 -5 9 -27 12 -43 12 -25 0z"/>
<path d="M574 2476 c11 -9 27 -16 35 -16 21 0 2 16 -29 24 -24 7 -24 6 -6 -8z"/>
<path d="M485 2430 c-3 -5 3 -10 14 -10 12 0 21 5 21 10 0 6 -6 10 -14 10 -8
0 -18 -4 -21 -10z"/>
<path d="M4391 2386 c-21 -25 -10 -61 18 -61 31 0 50 28 35 53 -15 23 -38 26
-53 8z"/>
<path d="M495 2364 c-19 -15 -19 -15 10 -12 17 2 29 7 28 13 -3 16 -17 15 -38
-1z"/>
<path d="M475 2305 c-39 -14 -40 -14 -5 -8 41 7 82 22 60 22 -8 0 -33 -7 -55
-14z"/>
<path d="M603 2235 c-26 -24 -43 -44 -38 -45 6 0 31 20 55 45 57 58 46 58 -17
0z"/>
<path d="M4505 2260 l-40 -7 53 -2 c29 0 52 3 52 9 0 11 -5 11 -65 0z"/>
<path d="M4615 2260 c-3 -5 -1 -10 4 -10 6 0 11 5 11 10 0 6 -2 10 -4 10 -3 0
-8 -4 -11 -10z"/>
<path d="M737 2243 c-4 -3 -7 -11 -7 -17 0 -6 5 -5 12 2 6 6 9 14 7 17 -3 3
-9 2 -12 -2z"/>
<path d="M680 2180 c0 -5 5 -10 10 -10 6 0 10 5 10 10 0 6 -4 10 -10 10 -5 0
-10 -4 -10 -10z"/>
<path d="M906 2165 c4 -8 8 -15 10 -15 2 0 4 7 4 15 0 8 -4 15 -10 15 -5 0 -7
-7 -4 -15z"/>
<path d="M765 2130 c-3 -5 1 -10 9 -10 9 0 16 5 16 10 0 6 -4 10 -9 10 -6 0
-13 -4 -16 -10z"/>
<path d="M820 1970 c0 -5 5 -10 10 -10 6 0 10 5 10 10 0 6 -4 10 -10 10 -5 0
-10 -4 -10 -10z"/>
<path d="M770 1950 c0 -5 5 -10 10 -10 6 0 10 5 10 10 0 6 -4 10 -10 10 -5 0
-10 -4 -10 -10z"/>
<path d="M913 1908 c-13 -6 -23 -15 -23 -19 0 -4 14 -1 30 7 29 15 39 25 23
23 -5 0 -18 -5 -30 -11z"/>
<path d="M4450 1853 c-49 -18 -66 -75 -32 -106 23 -21 76 -22 96 -1 25 24 20
69 -10 93 -28 22 -30 23 -54 14z"/>
<path d="M1070 1791 c0 -12 6 -21 16 -21 9 0 14 7 12 17 -5 25 -28 28 -28 4z"/>
<path d="M1000 1750 c-10 -6 -12 -12 -4 -20 7 -7 16 -5 29 10 14 15 15 20 4
20 -8 0 -21 -5 -29 -10z"/>
<path d="M4240 1710 c0 -5 5 -10 10 -10 6 0 10 5 10 10 0 6 -4 10 -10 10 -5 0
-10 -4 -10 -10z"/>
<path d="M926 1685 c-3 -8 -2 -15 3 -15 5 0 14 7 21 15 10 12 10 15 -3 15 -8
0 -17 -7 -21 -15z"/>
<path d="M799 1640 c-13 -10 -19 -19 -13 -20 6 0 19 9 29 20 23 26 14 26 -16
0z"/>
<path d="M4062 1634 c2 -11 11 -20 22 -22 13 -3 17 1 14 14 -2 11 -11 20 -22
22 -13 3 -17 -1 -14 -14z"/>
<path d="M4149 1594 c-16 -20 0 -49 27 -49 35 0 28 64 -7 65 -4 0 -12 -7 -20
-16z"/>
<path d="M1273 1554 c-7 -20 11 -38 32 -30 13 4 14 10 5 26 -13 24 -28 26 -37
4z"/>
<path d="M4330 1519 c0 -5 5 -7 10 -4 6 3 10 8 10 11 0 2 -4 4 -10 4 -5 0 -10
-5 -10 -11z"/>
<path d="M3952 1459 c2 -7 10 -15 17 -17 8 -3 12 1 9 9 -2 7 -10 15 -17 17 -8
3 -12 -1 -9 -9z"/>
<path d="M3630 1420 c-9 -6 -10 -10 -3 -10 6 0 15 5 18 10 8 12 4 12 -15 0z"/>
<path d="M3995 1380 c3 -5 8 -10 11 -10 2 0 4 5 4 10 0 6 -5 10 -11 10 -5 0
-7 -4 -4 -10z"/>
<path d="M1440 1370 c0 -5 4 -10 9 -10 6 0 13 5 16 10 3 6 -1 10 -9 10 -9 0
-16 -4 -16 -10z"/>
<path d="M3065 1360 c3 -5 8 -10 11 -10 2 0 4 5 4 10 0 6 -5 10 -11 10 -5 0
-7 -4 -4 -10z"/>
<path d="M1504 1306 c-10 -8 -15 -18 -11 -22 4 -4 15 0 24 9 22 21 12 31 -13
13z"/>
<path d="M2930 1305 c0 -8 5 -15 10 -15 6 0 10 7 10 15 0 8 -4 15 -10 15 -5 0
-10 -7 -10 -15z"/>
<path d="M4080 1310 c0 -5 5 -10 10 -10 6 0 10 5 10 10 0 6 -4 10 -10 10 -5 0
-10 -4 -10 -10z"/>
<path d="M3640 1220 c0 -5 5 -10 10 -10 6 0 10 5 10 10 0 6 -4 10 -10 10 -5 0
-10 -4 -10 -10z"/>
<path d="M3085 1210 c-3 -5 1 -10 9 -10 9 0 16 5 16 10 0 6 -4 10 -9 10 -6 0
-13 -4 -16 -10z"/>
<path d="M3225 1170 c-7 -12 2 -30 16 -30 12 0 12 27 0 35 -5 3 -12 1 -16 -5z"/>
<path d="M2343 1154 c-4 -10 0 -22 10 -29 9 -7 13 -16 9 -20 -4 -5 -2 -5 4 -2
15 9 12 59 -3 65 -7 2 -16 -4 -20 -14z"/>
<path d="M3765 1150 c3 -5 8 -10 11 -10 2 0 4 5 4 10 0 6 -5 10 -11 10 -5 0
-7 -4 -4 -10z"/>
<path d="M2060 1125 c-9 -11 -10 -19 -2 -27 14 -14 32 -1 32 23 0 23 -13 25
-30 4z"/>
<path d="M2461 1096 c-12 -14 -5 -46 10 -46 9 0 29 33 29 49 0 16 -25 14 -39
-3z"/>
<path d="M1813 1081 c-14 -23 -5 -35 14 -20 14 12 18 39 5 39 -4 0 -13 -9 -19
-19z"/>
<path d="M2245 1090 c-3 -5 -1 -10 4 -10 6 0 11 5 11 10 0 6 -2 10 -4 10 -3 0
-8 -4 -11 -10z"/>
<path d="M2796 1058 c-19 -27 -5 -48 19 -28 16 14 21 50 6 50 -6 0 -17 -10
-25 -22z"/>
<path d="M2000 1060 c0 -5 5 -10 10 -10 6 0 10 5 10 10 0 6 -4 10 -10 10 -5 0
-10 -4 -10 -10z"/>
<path d="M2892 938 c-25 -25 0 -64 32 -52 21 8 21 50 0 58 -20 8 -18 8 -32 -6z"/>
</g>
</svg>